<?xml version="1.0" encoding="UTF-8" standalone="no"?>
<!-- Created with Inkscape (http://www.inkscape.org/) -->

<svg
   xmlns:dc="http://purl.org/dc/elements/1.1/"
   xmlns:cc="http://creativecommons.org/ns#"
   xmlns:rdf="http://www.w3.org/1999/02/22-rdf-syntax-ns#"
   xmlns:svg="http://www.w3.org/2000/svg"
   xmlns="http://www.w3.org/2000/svg"
   xmlns:sodipodi="http://sodipodi.sourceforge.net/DTD/sodipodi-0.dtd"
   xmlns:inkscape="http://www.inkscape.org/namespaces/inkscape"
   width="5.8348923mm"
   height="5.1124101mm"
   viewBox="0 0 5.8348923 5.1124101"
   version="1.1"
   id="svg4490"
   inkscape:version="0.92.1 r15371"
   sodipodi:docname="brushBlack.svg">
  <defs
     id="defs4484" />
  <sodipodi:namedview
     id="base"
     pagecolor="#ffffff"
     bordercolor="#666666"
     borderopacity="1.0"
     inkscape:pageopacity="0.0"
     inkscape:pageshadow="2"
     inkscape:zoom="15.839192"
     inkscape:cx="9.4057738"
     inkscape:cy="11.287218"
     inkscape:document-units="mm"
     inkscape:current-layer="layer1"
     showgrid="false"
     inkscape:window-width="1366"
     inkscape:window-height="705"
     inkscape:window-x="-8"
     inkscape:window-y="-8"
     inkscape:window-maximized="1" />
  <metadata
     id="metadata4487">
    <rdf:RDF>
      <cc:Work
         rdf:about="">
        <dc:format>image/svg+xml</dc:format>
        <dc:type
           rdf:resource="http://purl.org/dc/dcmitype/StillImage" />
        <dc:title></dc:title>
      </cc:Work>
    </rdf:RDF>
  </metadata>
  <g
     inkscape:label="Ebene 1"
     inkscape:groupmode="layer"
     id="layer1"
     transform="translate(-2.2929524,-288.9292)">
    <path
       style="opacity:1;fill:#000000;fill-opacity:1;fill-rule:nonzero;stroke:none;stroke-width:0.1;stroke-miterlimit:4;stroke-dasharray:none;stroke-opacity:1"
       id="path5055"
       d="m 3.9821268,288.9292 c 0.3042766,0.27489 0.592003,0.56692 0.8899464,0.84872 0.4191997,0.43724 0.8442092,0.86871 1.2620259,1.30737 0.4234897,0.45091 0.8382106,0.90552 1.3060439,1.31105 0.2348085,0.19973 0.4570259,0.41306 0.6877016,0.61773 0,0 -1.6580718,1.02754 -1.6580718,1.02754 v 0 c -0.2251604,-0.20756 -0.4427683,-0.42317 -0.6735675,-0.62451 -0.4602125,-0.41917 -0.8678674,-0.88715 -1.3037394,-1.33104 -0.4174802,-0.43628 -0.8420481,-0.86468 -1.2687932,-1.2918 -0.3017718,-0.28607 -0.6091153,-0.56622 -0.9307203,-0.82994 0,0 1.6891744,-1.03512 1.6891744,-1.03512 z"
       inkscape:connector-curvature="0" />
  </g>
</svg>
