<?xml version="1.0" encoding="UTF-8" standalone="no"?>
<!-- Created with Inkscape (http://www.inkscape.org/) -->

<svg
   xmlns:dc="http://purl.org/dc/elements/1.1/"
   xmlns:cc="http://creativecommons.org/ns#"
   xmlns:rdf="http://www.w3.org/1999/02/22-rdf-syntax-ns#"
   xmlns:svg="http://www.w3.org/2000/svg"
   xmlns="http://www.w3.org/2000/svg"
   xmlns:sodipodi="http://sodipodi.sourceforge.net/DTD/sodipodi-0.dtd"
   xmlns:inkscape="http://www.inkscape.org/namespaces/inkscape"
   width="16mm"
   height="9mm"
   viewBox="0 0 16 9"
   version="1.1"
   id="svg8"
   inkscape:version="0.92.1 r15371"
   sodipodi:docname="kachel.svg">
  <title
     id="title12">Kachel 16:9</title>
  <defs
     id="defs2" />
  <sodipodi:namedview
     id="base"
     pagecolor="#ffffff"
     bordercolor="#666666"
     borderopacity="1.0"
     inkscape:pageopacity="0.0"
     inkscape:pageshadow="2"
     inkscape:zoom="11.2"
     inkscape:cx="26.642138"
     inkscape:cy="19.756143"
     inkscape:document-units="mm"
     inkscape:current-layer="layer1"
     showgrid="false"
     inkscape:window-width="1366"
     inkscape:window-height="705"
     inkscape:window-x="-8"
     inkscape:window-y="-8"
     inkscape:window-maximized="1" />
  <metadata
     id="metadata5">
    <rdf:RDF>
      <cc:Work
         rdf:about="">
        <dc:format>image/svg+xml</dc:format>
        <dc:type
           rdf:resource="http://purl.org/dc/dcmitype/StillImage" />
        <dc:title>Kachel 16:9</dc:title>
      </cc:Work>
    </rdf:RDF>
  </metadata>
  <g
     inkscape:label="Ebene 1"
     inkscape:groupmode="layer"
     id="layer1"
     transform="translate(-1.8040692,-280.16202)">
    <rect
       style="opacity:1;fill:#ffffff;fill-opacity:1;fill-rule:nonzero;stroke:none;stroke-width:0.1;stroke-miterlimit:4;stroke-dasharray:none;stroke-opacity:1"
       id="rect10"
       width="16"
       height="9"
       x="1.8040692"
       y="280.16202" />
    <path
       style="opacity:1;fill:#00ff00;fill-opacity:1;fill-rule:nonzero;stroke:none;stroke-width:0.1;stroke-miterlimit:4;stroke-dasharray:none;stroke-opacity:1"
       id="path4535"
       d="m 3.2967748,280.79894 c -0.0061,0.0626 -0.020524,0.12396 -0.031598,0.1858 -0.00618,0.0761 -0.020626,0.14999 -0.03793,0.22426 -0.023818,0.092 -0.042384,0.18527 -0.057297,0.27911 -0.022224,0.12652 -0.033721,0.25444 -0.039745,0.38264 -0.00657,0.15524 -0.028039,0.30939 -0.040472,0.46428 -0.00827,0.16381 -0.010612,0.32737 -0.026514,0.4907 -0.018748,0.1815 -0.027071,0.36382 -0.038863,0.54585 -0.00718,0.16702 -0.02108,0.33361 -0.030659,0.50049 -0.00294,0.11742 -0.00873,0.23446 -0.018279,0.35152 -0.00303,0.0675 -0.014956,0.13416 -0.023572,0.2011 0,0 -0.3099271,0.15271 -0.3099271,0.15271 v 0 c 0.00947,-0.0672 0.02309,-0.13386 0.028251,-0.20155 0.010565,-0.11775 0.019307,-0.23539 0.024108,-0.35354 0.011112,-0.16763 0.026366,-0.33495 0.034949,-0.50275 0.011732,-0.18197 0.018761,-0.36428 0.03644,-0.54582 0.00288,-0.0299 0.013647,-0.13745 0.015066,-0.16822 0.00493,-0.10692 6.509e-4,-0.21441 0.010633,-0.32118 0.00999,-0.15429 0.034031,-0.30742 0.038004,-0.462 0.00551,-0.1286 0.013965,-0.25687 0.03532,-0.384 0.011408,-0.0942 0.029112,-0.18803 0.053179,-0.27986 0.014579,-0.074 0.034382,-0.14639 0.037912,-0.22232 0.00868,-0.0595 0.021816,-0.11816 0.028483,-0.17799 0,0 0.3125095,-0.15923 0.3125095,-0.15923 z"
       inkscape:connector-curvature="0" />
    <path
       style="opacity:1;fill:#00ff00;fill-opacity:1;fill-rule:nonzero;stroke:none;stroke-width:0.1;stroke-miterlimit:4;stroke-dasharray:none;stroke-opacity:1"
       id="path4539"
       d="m 1.9920778,281.42601 c -0.00226,-0.0701 0.00846,-0.13755 0.02553,-0.20524 0.029071,-0.0824 0.07301,-0.15808 0.1258725,-0.22725 0.1399568,-0.17068 0.3406352,-0.24918 0.5323787,-0.35483 0.129447,-0.0398 0.263974,-0.0627 0.3979202,-0.0817 0.1543591,-0.0207 0.3101099,-0.0246 0.4656023,-0.0271 0.1580712,-8.7e-4 0.3161403,-4.3e-4 0.4742118,-2.1e-4 0.1539824,6.6e-4 0.307972,-6.7e-4 0.4619503,1.4e-4 0.092361,8.3e-4 0.1855478,-0.004 0.2775968,0.007 0.026547,0.003 0.096504,0.0171 0.1234985,0.0224 0.1098259,0.0288 0.2128073,0.0775 0.3066614,0.14081 0.075433,0.056 0.1460923,0.118 0.2105342,0.18631 0.061247,0.0676 0.10453,0.14799 0.1408115,0.231 0.041389,0.10494 0.069696,0.21258 0.084713,0.32419 0.01021,0.10282 0.012404,0.20616 0.013137,0.30941 -7.938e-4,0.0884 3.704e-4,0.17688 4.762e-4,0.26532 6.615e-4,0.0802 -0.018574,0.15372 -0.056627,0.22376 -0.047443,0.0693 -0.1209376,0.11482 -0.1914546,0.15782 -0.1726959,0.10567 -0.3447971,0.21609 -0.5305253,0.29738 -0.092373,0.0338 -0.1879418,0.0613 -0.2835344,0.0849 -0.084404,0.0197 -0.1706428,0.0252 -0.2569559,0.0278 -0.077464,-0.003 -0.153894,0.005 -0.230716,0.0134 -0.065128,0.008 -0.1306849,0.01 -0.1962303,0.0109 -0.061716,10e-4 -0.1234409,10e-4 -0.1851626,6.6e-4 -0.031089,-8e-5 -0.062178,2e-5 -0.093267,1.1e-4 0,0 0.2805453,-0.20379 0.2805453,-0.20379 v 0 c 0.030913,1.4e-4 0.061827,2.9e-4 0.092741,2.6e-4 0.061487,-2.7e-4 0.1229787,-1.2e-4 0.1844598,-10e-4 0.064733,-0.002 0.1293784,-0.006 0.1937667,-0.0127 0.077015,-0.008 0.1538415,-0.0111 0.2312771,-0.011 0.08456,-0.004 0.1691407,-0.0113 0.25131,-0.0329 0.094323,-0.026 0.1902481,-0.0492 0.2796842,-0.0896 0.047625,-0.0231 0.035005,-0.0165 0.077615,-0.0388 0.012854,-0.007 0.050963,-0.0278 0.038493,-0.0204 -0.4640429,0.27665 -0.2725449,0.16362 -0.173523,0.0977 0.070442,-0.0389 0.1399884,-0.0831 0.1960449,-0.14131 0.04339,-0.0625 0.06371,-0.13052 0.06504,-0.20686 5.291e-4,-0.0887 0.00249,-0.17742 0.00161,-0.26614 -8.17e-5,-0.10219 5.292e-4,-0.20465 -0.00963,-0.30646 -0.013229,-0.10839 -0.038565,-0.21373 -0.08025,-0.31502 -0.037038,-0.0782 -0.078231,-0.15571 -0.1373889,-0.21969 -0.063145,-0.0655 -0.1290116,-0.12844 -0.2032791,-0.18137 -0.092829,-0.0574 -0.1907521,-0.10753 -0.2982993,-0.13068 -0.1302197,-0.0246 -0.2615503,-0.0296 -0.3939802,-0.0263 -0.1537668,6.9e-4 -0.3075433,-8.2e-4 -0.4613138,-6.5e-4 -0.1583091,-2e-4 -0.316638,-8.6e-4 -0.4749324,0.001 -0.1541839,0.003 -0.3086732,0.008 -0.4615349,0.0296 -0.1345575,0.0215 -0.2703831,0.0453 -0.3984497,0.0931 0.081513,-0.0487 0.163379,-0.0968 0.2445376,-0.14615 0.014439,-0.009 -0.030023,0.0156 -0.044348,0.0245 -0.05673,0.0355 -0.1073359,0.0805 -0.151127,0.13084 -0.054332,0.0643 -0.094041,0.1374 -0.1300725,0.21333 -0.017348,0.0641 -0.031245,0.12727 -0.022913,0.19407 0,0 -0.3125095,0.15923 -0.3125095,0.15923 z"
       inkscape:connector-curvature="0" />
    <path
       style="opacity:1;fill:#00ff00;fill-opacity:1;fill-rule:nonzero;stroke:none;stroke-width:0.1;stroke-miterlimit:4;stroke-dasharray:none;stroke-opacity:1"
       id="path4541"
       d="m 6.5104159,280.68788 c 0.00783,0.0974 0.012912,0.19491 0.014817,0.29265 0.00266,0.14587 8.732e-4,0.29179 1.22e-5,0.43767 -0.00169,0.18291 -0.00101,0.36583 -2.91e-4,0.54874 -0.00148,0.1959 -0.00172,0.39181 -0.00153,0.58772 -9.261e-4,0.17994 0.00132,0.35987 0.00268,0.53979 8.467e-4,0.1342 0.00116,0.26839 0.00148,0.40259 0.00161,0.10624 7.408e-4,0.21251 0.00175,0.31876 0.00786,0.0574 -0.014293,0.13121 0.015121,0.18307 0.037667,0.0301 0.094556,0.0241 0.1401736,0.0258 0.1131546,10e-4 0.2263222,10e-4 0.3394837,0.002 0.1592813,-0.001 0.3185586,5e-4 0.4778369,10e-4 0.2649768,0.004 0.5299898,0.004 0.7949862,0.003 0.2404089,-6e-5 0.4808273,-5.8e-4 0.7212211,-0.003 0.1117274,-7.6e-4 0.2234485,-0.002 0.3351681,-0.003 0,0 -0.2767635,0.20108 -0.2767635,0.20108 v 0 c -0.1086178,-0.002 -0.2172374,-0.003 -0.3258635,-0.003 -0.237224,-0.003 -0.4744743,-0.003 -0.711714,-0.003 -0.2679798,-3.9e-4 -0.5359755,-3.9e-4 -0.8039349,0.003 -0.1609791,9e-4 -0.3219529,0.003 -0.482936,0.003 -0.1153644,9.8e-4 -0.2307408,0.003 -0.3461086,0.002 -0.060104,-0.002 -0.1238573,-0.002 -0.163984,-0.0535 -0.032791,-0.0633 -0.015118,-0.13216 -0.017436,-0.20117 0.00101,-0.10685 1.379e-4,-0.2137 0.00175,-0.32054 3.175e-4,-0.1347 6.35e-4,-0.26939 0.00146,-0.40408 0.00135,-0.18084 0.00359,-0.36168 0.00269,-0.54253 1.971e-4,-0.19541 -2.33e-5,-0.39081 -0.00143,-0.58622 7.937e-4,-0.18284 0.00167,-0.36568 -7.99e-5,-0.54851 -0.00106,-0.14461 -0.0022,-0.28921 -0.00562,-0.43379 -0.00342,-0.0953 -0.00667,-0.1911 -0.021463,-0.28546 0,0 0.3085449,-0.16207 0.3085449,-0.16207 z"
       inkscape:connector-curvature="0" />
    <path
       style="opacity:1;fill:#00ff00;fill-opacity:1;fill-rule:nonzero;stroke:none;stroke-width:0.1;stroke-miterlimit:4;stroke-dasharray:none;stroke-opacity:1"
       id="path4543"
       d="m 9.4607886,284.6078 c 0.036492,-0.0556 0.077802,-0.10735 0.1197631,-0.15888 0.092626,-0.12199 0.1826591,-0.24592 0.2738559,-0.36898 0.2022704,-0.24236 0.4047194,-0.48472 0.6093404,-0.7252 0.260512,-0.29825 0.500967,-0.61214 0.730877,-0.93428 0.130618,-0.19267 0.269079,-0.38051 0.392977,-0.57765 0.04559,-0.0745 0.08361,-0.15168 0.109664,-0.23493 0.01712,-0.0444 0.01818,-0.0927 0.03478,-0.13705 0.255658,-0.15264 0.332834,-0.2871 0.347378,-0.0529 0.0014,0.0987 -0.02171,0.1959 -0.03323,0.2937 -0.01504,0.17234 -0.01619,0.34551 -0.01944,0.51837 -0.0038,0.2721 -0.0044,0.54421 -0.0044,0.81634 -6.09e-4,0.26949 9.79e-4,0.53897 0.0033,0.80845 0.0034,0.16347 -0.0034,0.32782 0.01957,0.49015 0.0057,0.0651 0.03633,0.13178 0.02022,0.1972 -0.217114,0.14517 -0.227608,0.24772 -0.361051,0.15398 0,0 0.293012,-0.19013 0.293012,-0.19013 v 0 c 0.0084,0.004 0.01756,0.0101 0.02762,0.007 0.0031,-8.7e-4 0.01062,-0.008 0.0078,-0.006 -0.09642,0.058 -0.192495,0.1166 -0.288742,0.1749 0.004,-0.002 0.0092,-0.002 0.01205,-0.006 0.02603,-0.0314 -0.01443,-0.13594 -0.01189,-0.17375 -0.01703,-0.16653 -0.0084,-0.33381 -0.0075,-0.50089 0.0022,-0.27053 0.0037,-0.54106 0.0029,-0.8116 -2.21e-4,-0.27082 -0.0014,-0.54163 -0.0037,-0.81244 -0.0015,-0.17181 -0.0032,-0.34385 0.007,-0.51544 0.0042,-0.0584 0.0031,-0.0578 0.0108,-0.11268 0.0062,-0.0443 0.01835,-0.0896 0.02025,-0.13443 5.56e-4,-0.0127 -0.0013,-0.0255 -0.002,-0.0382 -0.014,-0.18314 -0.07115,-0.0376 0.282762,-0.24344 -0.0042,0.002 -0.0093,0.003 -0.01252,0.006 -0.0222,0.0232 -0.01295,0.0906 -0.0314,0.12045 -0.01132,0.0332 -0.02023,0.0669 -0.03471,0.099 -0.02024,0.0448 -0.02293,0.0443 -0.04901,0.089 -0.01163,0.0199 -0.02289,0.0401 -0.03433,0.0601 -0.129824,0.20207 -0.278328,0.39185 -0.414939,0.5893 -0.234265,0.32088 -0.473324,0.63817 -0.73408,0.93827 -0.199262,0.23565 -0.390897,0.47734 -0.588786,0.71405 -0.08787,0.12002 -0.1726155,0.24229 -0.2585102,0.36374 -0.039293,0.0506 -0.08451,0.0976 -0.1136714,0.15518 0,0 -0.3221019,0.1388 -0.3221019,0.1388 z"
       inkscape:connector-curvature="0" />
    <path
       style="opacity:1;fill:#00ff00;fill-opacity:1;fill-rule:nonzero;stroke:none;stroke-width:0.1;stroke-miterlimit:4;stroke-dasharray:none;stroke-opacity:1"
       id="path4545"
       d="m 10.310616,283.49609 c 0.06807,-0.008 0.135604,-0.0114 0.202815,-0.0252 0.108483,-0.0223 0.218968,-0.0285 0.329303,-0.0333 0.105975,0.002 0.209629,-0.0197 0.313929,-0.0344 0.08773,-0.009 0.173092,-0.0315 0.259644,-0.0472 0.04553,-0.009 0.09194,-0.01 0.13694,-0.021 0,0 -0.276995,0.2093 -0.276995,0.2093 v 0 c -0.04474,0.006 -0.08974,0.01 -0.134079,0.0188 -0.08609,0.017 -0.171953,0.0358 -0.259349,0.0451 -0.103984,0.0158 -0.208228,0.0298 -0.313676,0.0301 -0.110561,0.006 -0.220943,0.0155 -0.329302,0.0393 -0.06938,0.0121 -0.139931,0.015 -0.208801,0.0302 0,0 0.279571,-0.21167 0.279571,-0.21167 z"
       inkscape:connector-curvature="0" />
    <path
       style="opacity:1;fill:#00ff00;fill-opacity:1;fill-rule:nonzero;stroke:none;stroke-width:0.1;stroke-miterlimit:4;stroke-dasharray:none;stroke-opacity:1"
       id="path4547"
       d="m 13.714421,281.69962 c -0.0031,0.0843 -0.0037,0.16877 -0.0042,0.25315 -0.0013,0.13319 -0.0016,0.26638 -0.0025,0.39958 -4.76e-4,0.17123 -0.002,0.34245 -0.0018,0.51369 -9.1e-5,0.16591 10e-5,0.33183 0.0024,0.49773 0.0014,0.0935 0.0028,0.18709 0.004,0.28065 1.28e-4,0.0105 2.55e-4,0.0209 3.7e-4,0.0314 0,0 -0.308521,0.1572 -0.308521,0.1572 v 0 c 1.27e-4,-0.0106 2.54e-4,-0.0212 3.71e-4,-0.0318 0.0012,-0.0949 0.0026,-0.18982 0.004,-0.28473 0.0022,-0.1667 0.0025,-0.33343 0.0024,-0.50014 1.59e-4,-0.17061 -0.0013,-0.34123 -0.0018,-0.51184 -8.2e-4,-0.13236 -0.0012,-0.26472 -0.0025,-0.39708 -4.77e-4,-0.083 -0.001,-0.16601 -0.0042,-0.24891 0,0 0.311865,-0.15891 0.311865,-0.15891 z"
       inkscape:connector-curvature="0" />
    <path
       style="opacity:1;fill:#00ff00;fill-opacity:1;fill-rule:nonzero;stroke:none;stroke-width:0.1;stroke-miterlimit:4;stroke-dasharray:none;stroke-opacity:1"
       id="path4549"
       d="m 12.060847,281.44643 c 0.07932,0.002 0.15868,0.003 0.23803,0.003 0.130836,8.6e-4 0.261675,8.7e-4 0.392511,0.002 0.162815,-7e-5 0.325628,7.1e-4 0.488443,7.7e-4 0.160237,-0.001 0.320473,-7.3e-4 0.48071,2.4e-4 0.20859,0.006 0.416489,-0.002 0.624508,-0.0165 0.239549,-0.0295 0.477449,-0.0701 0.717217,-0.0982 0.16381,-0.0139 0.327298,-0.0313 0.491172,-0.0445 0.08647,-0.0104 0.171706,-0.0288 0.257645,-0.0428 0,0 -0.27424,0.20599 -0.27424,0.20599 v 0 c -0.08515,0.0134 -0.169769,0.0314 -0.255837,0.0379 -0.16012,0.0107 -0.320019,0.0251 -0.479974,0.0378 -0.240151,0.0267 -0.477758,0.0699 -0.717806,0.0969 -0.210113,0.0148 -0.42011,0.0217 -0.630792,0.0183 -0.160461,9.6e-4 -0.320921,0.002 -0.481383,2.4e-4 -0.163523,6e-5 -0.327044,8.4e-4 -0.490567,7.7e-4 -0.132426,8.7e-4 -0.264855,8.8e-4 -0.397281,0.002 -0.08204,0 -0.164089,8.8e-4 -0.246108,0.003 0,0 0.283752,-0.20616 0.283752,-0.20616 z"
       inkscape:connector-curvature="0" />
    <path
       style="opacity:1;fill:#00ff00;fill-opacity:1;fill-rule:nonzero;stroke:none;stroke-width:0.1;stroke-miterlimit:4;stroke-dasharray:none;stroke-opacity:1"
       id="path4551"
       d="m 15.486256,281.70629 c 0.0913,0.005 0.182153,0.003 0.272958,-0.007 0.145735,-0.0185 0.292339,-0.0266 0.439056,-0.0317 0.152087,-0.004 0.30423,-0.003 0.456348,-0.004 0.121575,-10e-4 0.243153,-6.1e-4 0.36473,-8.6e-4 0.08675,0.009 0.183961,-0.0163 0.268276,0.006 0.01515,0.0165 0.02572,0.0223 0.02786,0.0461 0.0052,0.0573 -0.07874,0.14649 -0.109473,0.18717 -0.219772,0.28787 -0.471785,0.54837 -0.727809,0.80368 -0.23487,0.23787 -0.496438,0.44458 -0.764595,0.64287 -0.165971,0.12452 -0.338574,0.23897 -0.512527,0.35181 -0.17986,0.11424 -0.365341,0.21854 -0.550676,0.32373 -0.02004,0.0114 -0.08074,0.0445 -0.06087,0.0328 0.07595,-0.0446 0.152761,-0.0877 0.229142,-0.13163 -0.03903,0.0288 -0.0949,0.0487 -0.123196,0.091 -5.56e-4,8.4e-4 0.0014,-0.002 0.0024,-0.002 0.0049,8e-5 0.0096,0.001 0.01447,0.002 0.112256,0.0122 0.225613,0.0108 0.338393,0.0113 0.239413,-0.006 0.477868,0.0177 0.715827,0.0407 0.525093,0.0617 1.053886,0.0748 1.581979,0.0837 0.458278,0.006 -0.428962,-0.0172 0.02932,-0.0219 0.170433,-0.003 0.06077,0.1846 0.231081,0.1932 v 0 0 c -0.161118,-0.008 -0.322621,-0.006 -0.483841,-0.01 -0.448541,-0.006 0.448472,0.01 0,0 -0.537851,-0.0125 -1.076839,-0.0156 -1.612997,-0.0639 -0.243507,-0.0187 -0.487213,-0.034 -0.731588,-0.0259 -0.07376,2.4e-4 -0.14757,0.001 -0.221327,-2.3e-4 -0.02746,-5.6e-4 -0.0752,-10e-4 -0.103894,-0.006 -0.01148,-0.002 -0.02252,-0.006 -0.03378,-0.009 -0.0082,-0.005 -0.01783,-0.009 -0.02458,-0.0159 -0.06233,-0.0649 0.06851,-0.11949 0.107283,-0.14732 0.115846,-0.0668 0.231444,-0.13395 0.347539,-0.20028 0.01999,-0.0114 0.08042,-0.0448 0.06068,-0.033 -0.07512,0.0451 -0.151159,0.0886 -0.226867,0.13266 -0.02144,0.0125 0.04285,-0.025 0.06406,-0.0379 0.02335,-0.0142 0.04639,-0.0289 0.06958,-0.0433 0.02381,-0.0143 0.04762,-0.0286 0.07142,-0.0429 0.177581,-0.11503 0.356344,-0.22786 0.525799,-0.35498 0.02237,-0.0163 0.215065,-0.15658 0.23202,-0.16938 0.194752,-0.147 0.376818,-0.30986 0.554158,-0.47724 0.248361,-0.24706 0.493397,-0.49872 0.696943,-0.78512 0.03207,-0.0462 0.06871,-0.0911 0.09869,-0.13877 0.0033,-0.005 0.0054,-0.011 0.008,-0.0166 0.001,-0.002 0.0036,-0.004 0.0028,-0.007 -9.79e-4,-0.003 -0.0047,-0.004 -0.0071,-0.006 -0.08457,-0.0133 -0.172339,10e-4 -0.257504,-0.005 -0.120543,-4.1e-4 -0.241087,-2e-4 -0.361627,-0.001 -0.151681,-7e-4 -0.303414,7e-5 -0.455031,0.005 -0.147115,0.006 -0.294005,0.0156 -0.44,0.0353 -0.095,0.01 -0.189908,0.0101 -0.2853,0.0118 l 0.283752,-0.20616 z"
       inkscape:connector-curvature="0"
       sodipodi:nodetypes="cccccccccccccccccccccccccccccccccccccccccccccccccccccc" />
    <path
       style="opacity:1;fill:#00ff00;fill-opacity:1;fill-rule:nonzero;stroke:none;stroke-width:0.1;stroke-miterlimit:4;stroke-dasharray:none;stroke-opacity:1"
       id="path4553"
       d="m 15.323425,282.98217 c 0.08682,0.003 0.173684,0.002 0.260528,0.003 0.130599,-1.1e-4 0.261195,9.8e-4 0.391794,9e-4 0.152034,4.5e-4 0.304068,5.8e-4 0.456103,4.2e-4 0.135733,-1.1e-4 0.271467,-2.1e-4 0.407193,-0.002 0.04439,-7.4e-4 0.08878,-8.4e-4 0.13317,-9.5e-4 0,0 -0.278029,0.202 -0.278029,0.202 v 0 c -0.04352,-1.1e-4 -0.08703,-2.1e-4 -0.130541,-9.5e-4 -0.134214,-0.001 -0.268435,-0.002 -0.402655,-0.002 -0.152425,-1.6e-4 -0.304848,-4e-5 -0.457272,4.2e-4 -0.13143,-7e-5 -0.262857,10e-4 -0.394287,9e-4 -0.08972,7.4e-4 -0.179471,6.3e-4 -0.269171,0.003 0,0 0.283167,-0.20573 0.283167,-0.20573 z"
       inkscape:connector-curvature="0" />
    <path
       style="opacity:1;fill:#00ff00;fill-opacity:1;fill-rule:nonzero;stroke:none;stroke-width:0.1;stroke-miterlimit:4;stroke-dasharray:none;stroke-opacity:1"
       id="path4555"
       d="m 2.6349944,285.2904 c -0.0039,0.0962 -0.00616,0.1925 -8.573e-4,0.28863 0.019085,0.16034 0.027775,0.32139 0.034851,0.48261 0.00518,0.18876 0.0041,0.3776 0.00399,0.5664 0.00191,0.19381 -0.0017,0.38766 0.00242,0.58143 0.0046,0.20368 0.02591,0.40639 0.046079,0.60896 0.011312,0.16431 0.027104,0.32827 0.038194,0.49259 0.00639,0.11389 0.02012,0.22721 0.030383,0.3408 0.00105,0.0131 0.0021,0.0262 0.00315,0.0394 0,0 -0.3057435,0.15815 -0.3057435,0.15815 v 0 c -5.662e-4,-0.0132 -0.00114,-0.0264 -0.0017,-0.0396 -0.00644,-0.11499 -0.020039,-0.22941 -0.023956,-0.34454 -0.0094,-0.16485 -0.02354,-0.32936 -0.033103,-0.4942 -0.01635,-0.20373 -0.039862,-0.40704 -0.045633,-0.61149 -0.00659,-0.194 -0.00255,-0.38812 -0.00281,-0.58221 -5.398e-4,-0.18779 -0.00129,-0.37562 -0.00727,-0.56333 -0.00536,-0.16034 -0.016549,-0.32036 -0.037708,-0.47947 -0.01044,-0.0949 -0.00821,-0.18984 -0.012161,-0.28513 0,0 0.3118652,-0.1589 0.3118651,-0.1589 z"
       inkscape:connector-curvature="0" />
    <path
       style="opacity:1;fill:#00ff00;fill-opacity:1;fill-rule:nonzero;stroke:none;stroke-width:0.1;stroke-miterlimit:4;stroke-dasharray:none;stroke-opacity:1"
       id="path4557"
       d="m 5.1606485,285.15387 c -0.015666,0.0999 -0.02829,0.20029 -0.03781,0.30098 -0.013684,0.17914 -0.016015,0.35894 -0.016925,0.53852 4.233e-4,0.19272 0.00293,0.3855 -0.00324,0.57814 -0.00971,0.22266 -0.027291,0.44476 -0.035185,0.66753 -0.010541,0.17329 -0.019862,0.3466 -0.024352,0.52016 -0.00257,0.10932 -0.00274,0.21865 -0.0023,0.32799 4.234e-4,0.0781 0.00103,0.15624 0.00183,0.23435 4.233e-4,0.0373 6.879e-4,0.0746 8.995e-4,0.11187 0,0 -0.3098395,0.15788 -0.3098395,0.15788 v 0 c 1.91e-4,-0.0376 4.498e-4,-0.0751 7.673e-4,-0.11269 6.086e-4,-0.0787 9.525e-4,-0.15744 0.00148,-0.23615 8.731e-4,-0.11051 0.00156,-0.22106 0.00653,-0.33147 0.00845,-0.17504 0.021394,-0.34979 0.032855,-0.52465 0.010954,-0.22233 0.025987,-0.44446 0.035003,-0.66686 0.00406,-0.1924 -3.968e-4,-0.38485 0.00309,-0.57728 9.26e-4,-0.17877 -0.00156,-0.35765 0.00686,-0.53629 0.00683,-0.0996 0.020558,-0.19834 0.026929,-0.29791 0,0 0.3133936,-0.15412 0.3133936,-0.15412 z"
       inkscape:connector-curvature="0" />
    <path
       style="opacity:1;fill:#00ff00;fill-opacity:1;fill-rule:nonzero;stroke:none;stroke-width:0.1;stroke-miterlimit:4;stroke-dasharray:none;stroke-opacity:1"
       id="path4559"
       d="m 2.8502119,287.16353 c 0.09123,0.002 0.1825081,0.003 0.2737646,0.004 0.023294,1.4e-4 0.046605,10e-4 0.069881,4.2e-4 0.082671,-0.003 0.1655321,-0.0146 0.2479753,-0.0213 0.076087,-0.006 0.1083904,-0.008 0.1849814,-0.012 0.1651322,-0.013 0.33161,-0.003 0.4963025,-0.0206 0.1219177,-0.0125 0.2415381,-0.039 0.3633318,-0.0523 0.1018093,-0.017 0.2044524,-0.0272 0.3073732,-0.0342 0.074524,-0.004 0.1482442,-0.0166 0.2227334,-0.0226 0.011073,-7.1e-4 0.022148,-0.001 0.033221,-0.002 0,0 -0.2784862,0.20522 -0.2784862,0.20522 v 0 c -0.010816,7.7e-4 -0.021632,0.002 -0.03245,0.002 -0.073885,0.007 -0.1472795,0.0187 -0.2215308,0.0209 -0.1016346,0.006 -0.2026308,0.0184 -0.3033462,0.0335 -0.1205002,0.0154 -0.2397646,0.0394 -0.3609799,0.0493 -0.163756,0.0114 -0.3283783,0.004 -0.4921863,0.0165 -0.1701063,0.0112 -0.3396194,0.0333 -0.5100957,0.0356 -0.094554,4.8e-4 -0.1891261,0.002 -0.2836564,0.004 0,0 0.2831678,-0.20574 0.2831678,-0.20574 z"
       inkscape:connector-curvature="0" />
    <path
       style="opacity:1;fill:#00ff00;fill-opacity:1;fill-rule:nonzero;stroke:none;stroke-width:0.1;stroke-miterlimit:4;stroke-dasharray:none;stroke-opacity:1"
       id="path4561"
       d="m 5.2558035,288.41118 c 0.076112,-0.0861 0.1531919,-0.17112 0.2267543,-0.25951 0.1070202,-0.11527 0.2034418,-0.23942 0.2995282,-0.36376 0.1223483,-0.16716 0.2467856,-0.33285 0.3677988,-0.50101 0.1173375,-0.1657 0.2391379,-0.328 0.3609171,-0.49043 0.087311,-0.11623 0.1735373,-0.23306 0.2475225,-0.35835 0.058978,-0.0993 0.1094798,-0.20363 0.1575739,-0.3086 0.054569,-0.11382 0.117515,-0.2233 0.1693315,-0.33846 0.037458,-0.0782 0.046913,-0.1659 0.080745,-0.24507 0.084549,-0.11516 0.037912,-0.058 0.3363317,-0.1888 0.01602,-0.007 0.09133,0.0892 0.09978,0.10072 0.071865,0.10305 0.1200817,0.221 0.168605,0.33635 0.071696,0.18739 0.127889,0.38 0.1847257,0.57226 0.059869,0.22463 0.1174057,0.44962 0.1640552,0.6774 0.039728,0.17703 0.075069,0.35513 0.1192096,0.53113 0.021534,0.12971 0.060499,0.25464 0.1010684,0.37942 0.02273,0.0742 0.050471,0.14677 0.067339,0.2226 0.00249,0.009 0.00495,0.0171 0.00743,0.0256 0,0 -0.3049346,0.16603 -0.3049346,0.16603 v 0 c -0.00257,-0.009 -0.00511,-0.0188 -0.00766,-0.0282 -0.014576,-0.0756 -0.040933,-0.14805 -0.060346,-0.22244 -0.038894,-0.12644 -0.076357,-0.25311 -0.09793,-0.38382 -0.041111,-0.17798 -0.071761,-0.35818 -0.1125921,-0.53624 -0.021148,-0.11139 -0.041847,-0.22257 -0.069709,-0.33253 -0.025236,-0.0996 -0.037896,-0.13578 -0.064157,-0.2341 -0.00964,-0.0361 -0.018476,-0.0724 -0.027713,-0.10859 -0.057167,-0.19025 -0.1154766,-0.38044 -0.1904746,-0.56459 -0.049841,-0.11183 -0.098393,-0.22618 -0.1722075,-0.32473 -0.023357,-0.0292 -0.023072,-0.0322 -0.051086,-0.0549 -0.00572,-0.005 -0.011525,-0.009 -0.018304,-0.0123 -0.00544,-0.002 -0.022492,3.4e-4 -0.017507,-0.003 0.23606,-0.15029 0.3916315,-0.20782 0.2620251,-0.15868 -0.00601,0.008 -0.01357,0.0159 -0.018042,0.0252 -0.00673,0.014 -0.019037,0.0652 -0.02281,0.0787 -0.013383,0.0479 -0.027037,0.0961 -0.047607,0.14155 -0.051984,0.11481 -0.1123537,0.22538 -0.168598,0.33811 -0.047237,0.10652 -0.098031,0.2121 -0.157444,0.31235 -0.073604,0.12894 -0.1628135,0.24725 -0.2528078,0.36502 -0.1230014,0.16263 -0.2476627,0.32389 -0.3645019,0.49108 -0.119085,0.16807 -0.2452302,0.33102 -0.3629777,0.50008 -0.094019,0.12468 -0.1878605,0.25 -0.2954626,0.36347 -0.0702,0.085 -0.1411874,0.16918 -0.2137635,0.25213 0,0 -0.3221021,0.13881 -0.3221021,0.13881 z"
       inkscape:connector-curvature="0" />
    <path
       style="opacity:1;fill:#00ff00;fill-opacity:1;fill-rule:nonzero;stroke:none;stroke-width:0.1;stroke-miterlimit:4;stroke-dasharray:none;stroke-opacity:1"
       id="path4563"
       d="m 6.4173622,287.13991 c 0.076803,0.002 0.153643,0.002 0.230464,0.003 0.1440008,7.4e-4 0.2879915,0.002 0.431995,0.003 0.1907638,10e-4 0.3815215,10e-4 0.5722871,4.2e-4 0.147756,0.003 0.2951009,-0.008 0.4424312,-0.0173 0.056201,-0.003 0.1124604,-0.005 0.1687092,-0.007 0,0 -0.2754027,0.20142 -0.2754027,0.20142 v 0 c -0.055368,0.001 -0.1107297,0.003 -0.1660337,0.006 -0.1456915,0.007 -0.2913179,0.0164 -0.4372885,0.0112 -0.1911625,-6.3e-4 -0.3823176,-6.6e-4 -0.5734783,4.2e-4 -0.1463482,2.1e-4 -0.2926845,0.002 -0.43903,0.003 -0.079273,8.2e-4 -0.1585637,7.7e-4 -0.2378213,0.003 0,0 0.283168,-0.20574 0.283168,-0.20574 z"
       inkscape:connector-curvature="0" />
    <path
       style="opacity:1;fill:#00ff00;fill-opacity:1;fill-rule:nonzero;stroke:none;stroke-width:0.1;stroke-miterlimit:4;stroke-dasharray:none;stroke-opacity:1"
       id="path4565"
       d="m 9.4861349,285.878 c -0.00291,0.0723 -0.00268,0.14467 -0.00411,0.21701 -1.413e-4,0.14692 -0.00122,0.29312 -0.019328,0.43905 -0.031594,0.20562 -0.062809,0.41127 -0.090691,0.61747 -0.021492,0.14647 -0.042411,0.29307 -0.061121,0.43993 -0.00559,0.0493 -0.00953,0.0989 -0.012097,0.14846 -6.085e-4,0.0119 -0.00332,0.0515 -9.31e-5,0.0658 0.00138,0.006 0.00579,0.0111 0.00868,0.0166 0.00501,0.004 0.00922,0.009 0.015028,0.0113 0.053878,0.0218 0.1837328,0.0188 0.2434789,0.0198 0.1385818,10e-4 0.2771698,5.8e-4 0.4157538,5.6e-4 0.1697555,-3.8e-4 0.3395125,7e-5 0.5092675,2.6e-4 0.157796,-4.3e-4 0.315597,-6.1e-4 0.473387,-0.002 0.08198,-0.003 0.164696,0.004 0.246199,-0.006 0,0 -0.277741,0.20522 -0.277741,0.20522 v 0 c -0.08046,0.003 -0.160991,-0.001 -0.241479,-6e-4 -0.156083,-10e-4 -0.312177,-10e-4 -0.468265,-0.002 -0.170599,3.5e-4 -0.3411945,9.6e-4 -0.5117917,0.002 -0.14009,9.7e-4 -0.2801951,0.003 -0.4202856,0.002 -0.071515,-0.002 -0.2038128,0.004 -0.2645905,-0.0356 -0.00855,-0.006 -0.014092,-0.0148 -0.021138,-0.0222 -0.00483,-0.01 -0.011761,-0.0191 -0.014499,-0.0298 -0.00398,-0.0156 8.38e-5,-0.057 0.00116,-0.071 0.00397,-0.0509 0.00946,-0.10163 0.015669,-0.15229 0.01896,-0.14849 0.045737,-0.29595 0.067956,-0.44398 0.032177,-0.2049 0.064526,-0.40991 0.088995,-0.6159 0.00787,-0.0616 0.014539,-0.10178 0.016489,-0.16369 0.0028,-0.0891 -0.00489,-0.17847 -0.00326,-0.26757 -0.00143,-0.071 -0.00116,-0.14193 -0.00411,-0.21283 0,0 0.3125094,-0.15923 0.3125094,-0.15923 z"
       inkscape:connector-curvature="0" />
    <path
       style="opacity:1;fill:#00ff00;fill-opacity:1;fill-rule:nonzero;stroke:none;stroke-width:0.1;stroke-miterlimit:4;stroke-dasharray:none;stroke-opacity:1"
       id="path4567"
       d="m 11.966281,285.97548 c -0.005,0.11771 -0.0067,0.2356 -0.0073,0.35341 -0.0017,0.17423 -2.08e-4,0.34846 -8.47e-4,0.52269 0.0031,0.14774 9.53e-4,0.29517 -0.0073,0.44267 -0.0044,0.0693 -0.0067,0.13864 -0.0087,0.20801 0,0 -0.30564,0.1544 -0.30564,0.1544 v 0 c 0.0028,-0.0703 0.0068,-0.14053 0.01183,-0.2107 0.01067,-0.14781 0.01735,-0.29546 0.01413,-0.44374 -6.35e-4,-0.17394 8.73e-4,-0.34788 -8.47e-4,-0.52182 -5.82e-4,-0.11534 -0.0021,-0.23078 -0.0073,-0.34602 0,0 0.311866,-0.1589 0.311866,-0.1589 z"
       inkscape:connector-curvature="0" />
    <path
       style="opacity:1;fill:#00ff00;fill-opacity:1;fill-rule:nonzero;stroke:none;stroke-width:0.1;stroke-miterlimit:4;stroke-dasharray:none;stroke-opacity:1"
       id="path4569"
       d="m 10.504228,286.0296 c 0.102634,0.003 0.205346,0.003 0.308018,0.004 0.191153,0.002 0.382323,0.002 0.573485,0.001 0.207927,-0.007 0.415218,-0.0324 0.620897,-0.0628 0.290708,-0.0541 0.584297,-0.0892 0.877125,-0.12925 0.20373,-0.0272 0.406249,-0.0621 0.610571,-0.0848 0.01831,-0.002 0.03661,-0.003 0.05492,-0.005 0,0 -0.273864,0.20251 -0.273864,0.20251 v 0 c -0.0174,10e-4 -0.0348,0.003 -0.0522,0.004 -0.197955,0.018 -0.394407,0.0484 -0.591717,0.0721 -0.295274,0.0394 -0.590481,0.0785 -0.883228,0.13438 -0.208528,0.0316 -0.418658,0.0598 -0.629807,0.0633 -0.192439,-8.4e-4 -0.384887,-8.2e-4 -0.577318,10e-4 -0.106683,0.001 -0.2134,0.001 -0.320049,0.004 0,0 0.283168,-0.20574 0.283168,-0.20574 z"
       inkscape:connector-curvature="0" />
    <path
       style="opacity:1;fill:#00ff00;fill-opacity:1;fill-rule:nonzero;stroke:none;stroke-width:0.1;stroke-miterlimit:4;stroke-dasharray:none;stroke-opacity:1"
       id="path4571"
       d="m 13.808915,286.68418 c -0.0043,0.0866 -0.0037,0.17335 -0.0035,0.26004 -10e-4,0.10318 -4.5e-5,0.20636 -4.24e-4,0.30955 -0.0042,0.0927 -0.0125,0.18521 -0.01773,0.27789 -0.003,0.064 -0.0031,0.12799 -0.0031,0.19199 0.0051,0.14362 0.05763,0.025 -0.308481,0.17253 -0.0058,0.002 0.005,-0.0115 0.0068,-0.0175 0.0022,-0.007 0.0033,-0.0148 0.005,-0.0222 0.0041,-0.0255 0.0065,-0.0511 0.01012,-0.0767 0,0 0.312358,-0.15259 0.312358,-0.15259 v 0 c -0.0051,0.0254 -0.0075,0.0507 -0.0094,0.0765 -0.0013,0.0101 -0.0057,0.0455 -0.0064,0.0459 -0.386461,0.22398 -0.325178,0.28045 -0.319762,0.13162 7.15e-4,-0.0651 0.0022,-0.13017 0.0057,-0.19518 0.0048,-0.0927 0.01581,-0.1848 0.02096,-0.27745 -3.71e-4,-0.10304 6.35e-4,-0.20608 -4.24e-4,-0.30912 1.35e-4,-0.0855 7.94e-4,-0.17102 -0.0035,-0.25642 0,0 0.311865,-0.15891 0.311865,-0.15891 z"
       inkscape:connector-curvature="0" />
    <path
       style="opacity:1;fill:#00ff00;fill-opacity:1;fill-rule:nonzero;stroke:none;stroke-width:0.1;stroke-miterlimit:4;stroke-dasharray:none;stroke-opacity:1"
       id="path4575"
       d="m 13.832611,285.9349 c 0.06238,-3.5e-4 0.123693,0.002 0.185525,0.01 0.07822,0.0101 0.157074,0.0128 0.235839,0.0144 0.09271,0.0131 0.186079,0.0188 0.279554,0.0225 0.09858,0.003 0.197249,0.003 0.295874,0.003 0.06712,-5.8e-4 0.134249,-7.2e-4 0.201374,-0.001 0.02662,-1.5e-4 0.05324,-2.4e-4 0.07986,-3.4e-4 0,0 -0.281404,0.20447 -0.281404,0.20447 v 0 c -0.02636,-6e-5 -0.05271,-1.2e-4 -0.07907,-2.2e-4 -0.06626,-2.5e-4 -0.132532,-1.6e-4 -0.198794,-9.5e-4 -0.09803,-9.6e-4 -0.19605,-0.002 -0.294036,-0.006 -0.0945,-0.004 -0.188744,-0.0107 -0.282914,-0.0196 -0.0794,-0.003 -0.158892,-0.007 -0.237819,-0.0164 -0.06247,-0.006 -0.125048,-0.006 -0.187745,-0.004 0,0 0.283753,-0.20616 0.283753,-0.20616 z"
       inkscape:connector-curvature="0" />
    <path
       style="opacity:1;fill:#00ff00;fill-opacity:1;fill-rule:nonzero;stroke:none;stroke-width:0.1;stroke-miterlimit:4;stroke-dasharray:none;stroke-opacity:1"
       id="path4577"
       d="m 14.210587,287.16332 c 0.0664,9.8e-4 0.133052,0.005 0.199173,-0.002 0.06221,-0.004 0.120705,-0.0252 0.181911,-0.0345 0.05729,-0.008 0.115146,-0.009 0.172899,-0.009 0.04591,0.002 0.09151,-0.005 0.135797,-0.0165 0,0 -0.275567,0.20901 -0.275567,0.20901 v 0 c -0.04633,0.008 -0.09294,0.0122 -0.139971,0.0114 -0.05691,0.002 -0.11404,0.004 -0.170147,0.0144 -0.06035,0.0127 -0.120221,0.0282 -0.182262,0.0303 -0.06849,0.003 -0.137066,0.001 -0.205586,0.004 0,0 0.283753,-0.20616 0.283753,-0.20616 z"
       inkscape:connector-curvature="0" />
    <path
       style="opacity:1;fill:#00ff00;fill-opacity:1;fill-rule:nonzero;stroke:none;stroke-width:0.1;stroke-miterlimit:4;stroke-dasharray:none;stroke-opacity:1"
       id="path4579"
       d="m 13.785364,288.17913 c 0.06562,0.0154 0.133419,0.0189 0.200538,0.0222 0.107001,0.005 0.214123,0.004 0.321195,0.005 0.111964,7.9e-4 0.22392,-6.9e-4 0.335881,-10e-4 0.0787,-3.2e-4 0.1574,-6.6e-4 0.2361,-10e-4 0.05634,-5.6e-4 0.112674,-4.5e-4 0.169012,-3.7e-4 0.0273,-10e-6 0.05459,-8e-5 0.08188,-1.4e-4 0,0 -0.281193,0.2043 -0.281193,0.2043 v 0 c -0.02717,-6e-5 -0.05435,-1.3e-4 -0.08152,-1.3e-4 -0.056,7e-5 -0.11199,1.9e-4 -0.167985,-3.7e-4 -0.07774,-4.5e-4 -0.15548,-7.5e-4 -0.233221,-9.8e-4 -0.110994,-3.2e-4 -0.221983,-0.002 -0.332979,-10e-4 -0.10873,3.2e-4 -0.217509,2e-4 -0.326183,-0.004 -0.06863,-0.004 -0.136851,-0.0115 -0.205284,-0.0165 0,0 0.283753,-0.20616 0.283753,-0.20616 z"
       inkscape:connector-curvature="0" />
    <path
       style="opacity:1;fill:#00ff00;fill-opacity:1;fill-rule:nonzero;stroke:none;stroke-width:0.1;stroke-miterlimit:4;stroke-dasharray:none;stroke-opacity:1"
       id="path4581"
       d="m 15.580998,286.30322 c -0.0037,0.0817 -0.0039,0.1636 -0.0042,0.24541 -0.0026,0.13083 -0.0012,0.26169 -0.0023,0.39253 -4.76e-4,0.14708 -2.91e-4,0.29416 -2.65e-4,0.44124 0.0012,0.1242 0.0012,0.2484 0.002,0.3726 4.24e-4,0.0918 10e-4,0.18365 0.0021,0.27547 0.002,0.0465 -0.0016,0.0933 0.0035,0.13951 0,0 -0.308548,0.16208 -0.308548,0.16208 v 0 c -0.0066,-0.0481 -0.0015,-0.0967 -0.0021,-0.14507 0.0011,-0.0925 0.0017,-0.18509 0.0021,-0.27763 7.14e-4,-0.12488 7.94e-4,-0.24976 0.002,-0.37463 3.6e-5,-0.14699 2e-4,-0.29397 -2.65e-4,-0.44096 -0.0011,-0.13005 2.65e-4,-0.26012 -0.0023,-0.39017 -2.64e-4,-0.0804 -4.23e-4,-0.16084 -0.0042,-0.24115 0,0 0.31251,-0.15923 0.31251,-0.15923 z"
       inkscape:connector-curvature="0" />
    <path
       style="opacity:1;fill:#00ff00;fill-opacity:1;fill-rule:nonzero;stroke:none;stroke-width:0.1;stroke-miterlimit:4;stroke-dasharray:none;stroke-opacity:1"
       id="path4583"
       d="m 15.032254,286.43419 c -0.0014,-0.055 0.0055,-0.1073 0.0232,-0.15925 0.03277,-0.0738 0.0899,-0.13525 0.149787,-0.18834 0.148562,-0.11517 0.313216,-0.21022 0.495321,-0.2541 0.07357,-0.01 0.148445,-0.0177 0.222529,-0.0106 0.0884,0.0151 0.164498,0.062 0.240131,0.10732 0.07559,0.0555 0.143896,0.12031 0.1987,0.19646 0.07389,0.0916 0.122113,0.20006 0.170056,0.3066 0.05137,0.11181 0.07071,0.23162 0.08055,0.35307 0.006,0.0942 0.0056,0.18861 0.0059,0.28295 0.0039,0.0879 -0.007,0.14578 -0.05765,0.2177 -0.114916,0.13644 -0.286158,0.21883 -0.453993,0.27526 -0.05738,0.0146 -0.11654,0.0182 -0.175464,0.02 -0.05166,2e-5 -0.103541,0.004 -0.154705,-0.004 -0.02639,-9.5e-4 -0.04849,-0.0108 -0.07104,-0.023 -0.0027,-10e-4 -0.01095,-0.002 -0.0083,-0.004 0.309706,-0.18412 0.227189,-0.25969 0.324158,-0.15869 0.126836,0.11273 0.251341,0.22855 0.37526,0.34461 0.204874,0.19062 0.415964,0.37437 0.625929,0.55932 0.143102,0.12339 0.283464,0.24993 0.426656,0.37322 0.08831,0.0853 0.1892,0.15578 0.283919,0.23348 0,0 -0.287102,0.17951 -0.287102,0.17951 v 0 c -0.0931,-0.0791 -0.190516,-0.1532 -0.279403,-0.23711 -0.141339,-0.12426 -0.28069,-0.25083 -0.418775,-0.37869 -0.206574,-0.18838 -0.412948,-0.37683 -0.623056,-0.5613 -0.130245,-0.11407 -0.261187,-0.22767 -0.400426,-0.33078 -0.101571,-0.0954 -0.02925,-0.0168 0.267965,-0.21581 0.0021,-0.001 0.0041,0.003 0.0063,0.004 0.01866,0.0101 0.04044,0.011 0.06101,0.0137 0.05061,0.003 0.101365,10e-4 0.152004,-1.3e-4 0.05697,-0.003 0.114369,-0.008 0.168318,-0.0281 0.117348,-0.0467 0.236174,-0.1331 -0.213225,0.1342 -0.0091,0.005 0.01944,-0.009 0.0283,-0.0146 0.01974,-0.013 0.03208,-0.0281 0.0482,-0.0451 0.05824,-0.0682 0.0725,-0.10609 0.06883,-0.19806 0.0012,-0.094 0.0024,-0.18815 -0.0017,-0.28213 -0.0075,-0.11807 -0.02369,-0.23522 -0.07108,-0.34486 -0.0464,-0.10522 -0.100451,-0.2071 -0.173648,-0.29649 -0.05212,-0.0725 -0.115031,-0.13537 -0.189199,-0.18562 -0.07312,-0.0424 -0.147876,-0.0845 -0.233907,-0.0919 -0.07249,-0.002 -0.145648,0.003 -0.216356,0.0197 -0.03391,0.01 -0.06734,0.02 -0.09984,0.0339 -0.01073,0.005 -0.04169,0.0208 -0.03171,0.0148 0.357922,-0.2159 0.335723,-0.20208 0.230331,-0.13295 -0.06269,0.0437 -0.115267,0.10521 -0.155849,0.16953 -0.01696,0.048 -0.03142,0.0952 -0.02436,0.14687 0,0 -0.31251,0.15923 -0.31251,0.15923 z"
       inkscape:connector-curvature="0" />
  </g>
</svg>
