<?xml version="1.0" encoding="UTF-8" standalone="no"?>
<!-- Created with Inkscape (http://www.inkscape.org/) -->

<svg
   xmlns:dc="http://purl.org/dc/elements/1.1/"
   xmlns:cc="http://creativecommons.org/ns#"
   xmlns:rdf="http://www.w3.org/1999/02/22-rdf-syntax-ns#"
   xmlns:svg="http://www.w3.org/2000/svg"
   xmlns="http://www.w3.org/2000/svg"
   xmlns:sodipodi="http://sodipodi.sourceforge.net/DTD/sodipodi-0.dtd"
   xmlns:inkscape="http://www.inkscape.org/namespaces/inkscape"
   width="16.675081mm"
   height="17.273651mm"
   viewBox="0 0 16.675081 17.273651"
   version="1.1"
   id="svg4555"
   inkscape:export-filename="C:\Users\adria\left.png"
   inkscape:export-xdpi="40.639999"
   inkscape:export-ydpi="40.639999"
   inkscape:version="0.92.1 r15371"
   sodipodi:docname="left.svg">
  <defs
     id="defs4549" />
  <sodipodi:namedview
     id="base"
     pagecolor="#ffffff"
     bordercolor="#666666"
     borderopacity="1.0"
     inkscape:pageopacity="0.0"
     inkscape:pageshadow="2"
     inkscape:zoom="5.6"
     inkscape:cx="21.854246"
     inkscape:cy="35.754117"
     inkscape:document-units="mm"
     inkscape:current-layer="layer1"
     showgrid="false"
     inkscape:window-width="1366"
     inkscape:window-height="705"
     inkscape:window-x="-8"
     inkscape:window-y="-8"
     inkscape:window-maximized="1" />
  <metadata
     id="metadata4552">
    <rdf:RDF>
      <cc:Work
         rdf:about="">
        <dc:format>image/svg+xml</dc:format>
        <dc:type
           rdf:resource="http://purl.org/dc/dcmitype/StillImage" />
        <dc:title></dc:title>
      </cc:Work>
    </rdf:RDF>
  </metadata>
  <g
     inkscape:label="Ebene 1"
     inkscape:groupmode="layer"
     id="layer1"
     transform="translate(-1.7485267,-278.75911)">
    <path
       style="fill:#f5f5f5;fill-opacity:1;stroke:#000000;stroke-width:0.26458332px;stroke-linecap:butt;stroke-linejoin:miter;stroke-opacity:1"
       d="m 1.9372343,286.7474 c 0.277248,-0.36967 -0.01427,-0.0637 0.330729,-0.23624 0.03984,-0.0199 0.063,-0.063 0.09449,-0.0945 0.01575,-0.0158 0.02678,-0.0385 0.04725,-0.0473 0.09155,-0.0392 0.192804,-0.0533 0.283482,-0.0945 0.0836,-0.038 0.156503,-0.0962 0.236235,-0.14174 0.03058,-0.0175 0.06699,-0.0253 0.09449,-0.0473 0.05218,-0.0417 0.08615,-0.10468 0.141741,-0.14174 0.04144,-0.0276 0.0955,-0.0288 0.141741,-0.0473 0.0327,-0.0131 0.06033,-0.0387 0.09449,-0.0473 0.03056,-0.008 0.06361,0.006 0.09449,0 0.343923,-0.0688 -0.03651,-0.005 0.236235,-0.14174 0.02817,-0.0141 0.06342,0.005 0.09449,0 0.06405,-0.0107 0.127386,-0.0267 0.188988,-0.0473 0.106077,-0.0353 0.128413,-0.0878 0.236236,-0.14174 0.01409,-0.007 0.03197,0.004 0.04725,0 0.04832,-0.0121 0.09596,-0.0276 0.141741,-0.0472 0.06474,-0.0277 0.127836,-0.0596 0.188988,-0.0945 0.0493,-0.0282 0.08902,-0.0734 0.141741,-0.0945 0.02924,-0.0117 0.06525,0.0117 0.09449,0 0.05272,-0.0211 0.09631,-0.0604 0.141741,-0.0945 0.01782,-0.0134 0.02564,-0.0418 0.04725,-0.0472 0.265094,-0.0663 0.01939,0.0848 0.283482,-0.0473 0.01992,-0.01 0.0315,-0.0315 0.04725,-0.0473 0.0315,-0.0315 0.05886,-0.0678 0.09449,-0.0945 0.02817,-0.0211 0.063,-0.0315 0.09449,-0.0472 0.04725,-0.0158 0.101214,-0.0183 0.141741,-0.0472 0.07249,-0.0518 0.11942,-0.13334 0.188988,-0.18899 0.0123,-0.01 0.03465,0.009 0.04725,0 0.05345,-0.0401 0.08445,-0.10737 0.141741,-0.14174 0.02701,-0.0162 0.06632,0.0141 0.09449,0 0.03984,-0.0199 0.05886,-0.0678 0.09449,-0.0945 0.02817,-0.0211 0.0643,-0.0291 0.09449,-0.0472 0.04869,-0.0292 0.09305,-0.0653 0.141741,-0.0945 0.0302,-0.0181 0.07336,-0.0191 0.09449,-0.0473 0.02988,-0.0398 0.0084,-0.11063 0.04725,-0.14174 0.05071,-0.0406 0.133307,-0.0138 0.188988,-0.0472 0.0302,-0.0181 0.02235,-0.0696 0.04725,-0.0945 0.01114,-0.0111 0.03414,0.009 0.04725,0 0.03706,-0.0247 0.063,-0.063 0.09449,-0.0945 0.01575,-0.0157 0.02733,-0.0373 0.04725,-0.0472 0.04454,-0.0223 0.09904,-0.0216 0.141741,-0.0473 0.0382,-0.0229 0.05465,-0.0746 0.09449,-0.0945 0.02817,-0.0141 0.06394,0.008 0.09449,0 0.06833,-0.0171 0.122171,-0.0722 0.188988,-0.0945 0.01494,-0.005 0.03197,0.004 0.04725,0 0.04832,-0.0121 0.09342,-0.0352 0.141742,-0.0472 0.01528,-0.004 0.03316,0.007 0.04725,0 0.03984,-0.0199 0.05465,-0.0746 0.09449,-0.0945 0.01409,-0.007 0.0315,0 0.04725,0 0.0315,-0.0157 0.06632,-0.0261 0.09449,-0.0472 0.03564,-0.0267 0.05886,-0.0678 0.09449,-0.0945 0.190946,-0.14321 0.02244,-0.007 0.141741,-0.0472 0.03341,-0.0111 0.06519,-0.0277 0.09449,-0.0473 0.01853,-0.0123 0.02612,-0.0402 0.04725,-0.0473 0.02988,-0.01 0.06461,0.01 0.09449,0 0.02113,-0.007 0.0315,-0.0315 0.04725,-0.0472 0.0315,-0.0315 0.05886,-0.0678 0.09449,-0.0945 0.02817,-0.0211 0.063,-0.0315 0.09449,-0.0473 0.0315,-0.0157 0.06033,-0.0387 0.09449,-0.0472 0.03056,-0.008 0.06632,0.0141 0.09449,0 0.143039,0.11658 0.08127,-0.12852 0.09449,-0.14174 0.0249,-0.0249 0.063,-0.0315 0.09449,-0.0473 0.0315,-0.0158 0.06109,-0.0361 0.09449,-0.0473 0.01494,-0.005 0.03414,0.009 0.04725,0 0.03706,-0.0247 0.05314,-0.0779 0.09449,-0.0945 0.04387,-0.0175 0.103943,0.0284 0.141741,0 0.03984,-0.0299 0.01736,-0.1019 0.04725,-0.14174 0.02113,-0.0282 0.063,-0.0315 0.09449,-0.0473 0.0315,-0.0157 0.06109,-0.0361 0.09449,-0.0472 0.08727,-0.0291 0.0224,0.0721 0.141741,-0.0472 0.0249,-0.0249 0.01575,-0.0787 0.04725,-0.0945 0.04304,-0.0845 0.1326427,0.0282 0.1889877,0 0.05079,-0.0254 0.09305,-0.0653 0.141741,-0.0945 0.06039,-0.0362 0.125992,-0.063 0.188988,-0.0945 0.0315,-0.0157 0.067,-0.0252 0.09449,-0.0472 0.05218,-0.0417 0.08445,-0.10737 0.141741,-0.14174 0.02701,-0.0162 0.06394,0.008 0.09449,0 0.203075,0.0986 0.05223,-0.0804 0.09449,-0.0945 0.04482,-0.0149 0.09591,0.0115 0.141741,0 0.02161,-0.005 0.02872,-0.0349 0.04725,-0.0473 0.123849,-0.0826 0.08257,-0.0177 0.236235,-0.0945 0.01992,-0.01 0.02733,-0.0373 0.04725,-0.0472 0.04454,-0.0223 0.09904,-0.0216 0.141741,-0.0472 0.0382,-0.0229 0.05465,-0.0746 0.09449,-0.0945 0.02817,-0.0141 0.06829,0.0175 0.09449,0 0.0293,-0.0195 0.01907,-0.0734 0.04725,-0.0945 0.341891,-0.25642 -0.01575,0.0787 0.236235,-0.0472 0.03984,-0.0199 0.05465,-0.0746 0.09449,-0.0945 0.02817,-0.0141 0.06394,0.008 0.09449,0 0.09172,-0.0229 0.151554,-0.10787 0.236235,-0.14174 0.02924,-0.0117 0.06632,0.0141 0.09449,0 0.03984,-0.0199 0.05743,-0.0698 0.09449,-0.0945 0.0131,-0.009 0.03262,0.006 0.04725,0 0.06539,-0.0262 0.125992,-0.063 0.188988,-0.0945 0.0315,-0.0158 0.06632,-0.0261 0.09449,-0.0473 0.03564,-0.0267 0.05465,-0.0746 0.09449,-0.0945 0.02817,-0.0141 0.06394,0.008 0.09449,0 0.03416,-0.009 0.06109,-0.0361 0.0945,-0.0472 0.01494,-0.005 0.03316,0.007 0.04725,0 0.01992,-0.01 0.02564,-0.0418 0.04725,-0.0473 0.07639,-0.0191 0.159841,0.0191 0.236235,0 0.03416,-0.009 0.06033,-0.0387 0.09449,-0.0472 0.03056,-0.008 0.063,0 0.09449,0 0.0315,-0.0158 0.06109,-0.0361 0.09449,-0.0473 0.02988,-0.01 0.06632,0.0141 0.09449,0 0.05079,-0.0254 0.08902,-0.0734 0.141741,-0.0945 0.02924,-0.0117 0.06461,0.01 0.09449,0 0.02113,-0.007 0.0315,-0.0315 0.04725,-0.0472 0.0315,0 0.06394,0.008 0.09449,0 0.03416,-0.009 0.063,-0.0315 0.09449,-0.0473 0.0315,-0.0157 0.06519,-0.0277 0.09449,-0.0473 0.01853,-0.0123 0.02564,-0.0418 0.04725,-0.0472 0.04584,-0.0115 0.09787,0.0175 0.141741,0 0.04136,-0.0165 0.05886,-0.0678 0.09449,-0.0945 0.04888,-0.0367 0.188593,-0.0826 0.236235,-0.0945 0.01528,-0.004 0.03316,0.007 0.04725,0 0.01992,-0.01 0.02564,-0.0419 0.04725,-0.0473 0.04584,-0.0115 0.09449,0 0.141742,0 0.01575,0 0.03316,0.007 0.04725,0 0.01992,-0.01 0.02612,-0.0402 0.04725,-0.0472 0.02605,-0.009 0.243387,0 0.283483,0 0.04758,0 0.257353,0.009 0.283482,0 0.02113,-0.007 0.02612,-0.0402 0.04725,-0.0472 0.02988,-0.01 0.063,0 0.09449,0 0.01575,0 0.03316,0.007 0.04725,0 0.01992,-0.01 0.02733,-0.0373 0.04725,-0.0472 0.01409,-0.007 0.03316,0.007 0.04725,0 0.01992,-0.01 0.02564,-0.0418 0.04725,-0.0473 0.04584,-0.0115 0.0959,0.0115 0.141741,0 0.04322,-0.0108 0.05465,-0.0746 0.09449,-0.0945 0.01409,-0.007 0.0315,0 0.04725,0 0.0315,0 0.06394,0.008 0.09449,0 0.188781,-0.0472 7.15e-4,-0.0476 0.188988,-0.14174 0.0378,-0.0189 0.103944,0.0189 0.141741,0 0.01992,-0.01 0.02733,-0.0373 0.04725,-0.0473 0.01409,-0.007 0.03316,0.007 0.04725,0 0.01992,-0.01 0.02872,-0.0349 0.04725,-0.0473 0.0293,-0.0195 0.063,-0.0315 0.09449,-0.0472 0.0315,-0.0157 0.06033,-0.0387 0.0945,-0.0472 0.313397,0 -0.06682,0.0223 0.141741,-0.0473 2.14e-4,-7e-5 0.141696,5e-5 0.141741,0 0.0249,-0.0249 0.01795,-0.075 0.04725,-0.0945 0.02621,-0.0175 0.06394,0.008 0.09449,0 0.228153,-0.057 -0.0023,-0.0224 0.141741,-0.0945 0.01409,-0.007 0.03611,0.0111 0.04725,0 0.0249,-0.0249 0.02235,-0.0696 0.04725,-0.0945 0.01114,-0.0111 0.03231,0.005 0.04725,0 0.03341,-0.0111 0.06519,-0.0277 0.09449,-0.0473 0.01853,-0.0123 0.02733,-0.0373 0.04725,-0.0472 0.01409,-0.007 0.03611,0.0111 0.04725,0 0.01114,-0.0111 -0.01409,-0.0402 0,-0.0473 0.02817,-0.0141 0.06632,-0.0141 0.09449,0 0.01409,0.007 0,0.0315 0,0.0473 0,0.0315 0,0.063 0,0.0945 0,0.0482 0.0077,0.30778 0,0.33073 -0.007,0.0211 -0.04184,0.0256 -0.04725,0.0472 -0.01482,0.0593 0.01482,0.1297 0,0.18899 -0.01208,0.0483 -0.02497,0.0972 -0.04725,0.14174 -0.108116,0.21623 0.01958,-0.20049 -0.09449,0.14174 -0.03626,0.10877 -0.05424,0.22337 -0.09449,0.33073 -0.0078,0.0208 -0.0402,0.0261 -0.04725,0.0472 -0.01,0.0299 0.0076,0.0639 0,0.0945 -0.0085,0.0342 -0.04034,0.06 -0.04725,0.0945 -0.0093,0.0463 0.0093,0.0954 0,0.14174 -0.0069,0.0345 -0.03417,0.0618 -0.04725,0.0945 -0.0185,0.0462 -0.03748,0.0929 -0.04725,0.14174 -0.01235,0.0618 0.01528,0.12787 0,0.18899 -0.0085,0.0342 -0.03871,0.0603 -0.04725,0.0945 -0.0076,0.0306 0,0.063 0,0.0945 0,0.0473 0,0.0945 0,0.14175 0,0.0472 0,0.0945 0,0.14174 0,0.0315 0.0087,0.0642 0,0.0945 -0.0233,0.0815 -0.07392,0.15396 -0.09449,0.23624 -0.01146,0.0458 0,0.0945 0,0.14174 0,0.14174 0,0.28348 0,0.42522 0,0.0473 0.0093,0.0954 0,0.14174 -0.0069,0.0345 -0.04034,0.06 -0.04725,0.0945 -0.0093,0.0463 0,0.0945 0,0.14174 0,0.0945 0.01044,0.18956 0,0.28348 -0.0089,0.0798 -0.03729,0.15655 -0.04725,0.23623 -0.0059,0.0469 0.0093,0.0954 0,0.14174 -0.0069,0.0345 -0.04034,0.06 -0.04725,0.0945 -0.0093,0.0463 0,0.0945 0,0.14174 0,0.0945 0,0.18899 0,0.28348 0,0.063 0.0089,0.12663 0,0.18899 -0.007,0.0493 -0.03356,0.0938 -0.04725,0.14174 -0.01784,0.0624 -0.03806,0.12471 -0.04725,0.18899 -0.0067,0.0468 0.01298,0.0963 0,0.14174 -0.01935,0.0677 -0.07515,0.12127 -0.0945,0.18899 -0.01298,0.0454 0.0059,0.0949 0,0.14174 -0.01,0.0797 -0.03589,0.15674 -0.04725,0.23623 -0.0045,0.0312 0,0.063 0,0.0945 0,0.0945 0,0.18899 0,0.28348 0,0.18899 0,0.37798 0,0.56697 0,0.69295 0,1.38591 0,2.07886 0,0.61422 0,1.22843 0,1.84264 0,0.17324 0,0.34648 0,0.51972 0,0.0472 0,0.0945 0,0.14174 0,0.0472 -0.0078,0.0951 0,0.14174 0.0082,0.0491 0.0315,0.0945 0.04725,0.14174 0,0.063 -0.0089,0.12662 0,0.18899 0.007,0.0493 0.03906,0.0926 0.04725,0.14174 0.0078,0.0466 -0.0067,0.095 0,0.14174 0.0092,0.0643 0.03806,0.1247 0.04725,0.18899 0.0067,0.0468 -0.0093,0.0954 0,0.14174 0.0069,0.0345 0.04034,0.06 0.04725,0.0945 0.0093,0.0463 0,0.0945 0,0.14174 0,0.0315 -0.01,0.0646 0,0.0945 0.007,0.0211 0.03729,0.0273 0.04725,0.0472 0.007,0.0141 0,0.0315 0,0.0473 0,0.0315 0,0.063 0,0.0945 0,0.12599 0,0.25198 0,0.37797 0,0.0473 0,0.0945 0,0.14174 0,0.0315 -0.01409,0.0663 0,0.0945 0.01992,0.0398 0.06979,0.0574 0.09449,0.0945 0.0122,0.0183 -0.009,0.15294 0,0.18899 0.01208,0.0483 0.03906,0.0926 0.04725,0.14174 0.0078,0.0466 0,0.0945 0,0.14174 0,0.0788 0,0.15749 0,0.23624 0,0.0315 -0.01,0.0646 0,0.0945 0.06952,0.20856 0.04725,-0.17166 0.04725,0.14174 0,0.0945 0,0.18899 0,0.28348 0,0.0315 -0.01409,0.0663 0,0.0945 0.007,0.0141 0.0315,0 0.04725,0 0.01575,0.0315 0.03611,0.0611 0.04725,0.0945 0.0087,0.026 -0.0101,0.17889 0,0.18899 0.0249,0.0249 0.06959,0.0224 0.09449,0.0473 0.0021,0.002 0,0.21395 0,0.23623 0,0.20474 0,0.40948 0,0.61421 0,0.0157 0,0.0315 0,0.0472 0,0.0158 0.01114,0.0361 0,0.0473 -0.01114,0.0111 -0.03611,-0.0111 -0.04725,0 -0.01114,0.0111 0,0.0315 0,0.0472 0,0.0788 0,0.15749 0,0.23624 0,0.0158 0.007,-0.0332 0,-0.0473 -0.01,-0.0199 -0.03489,-0.0287 -0.04725,-0.0472 -0.01953,-0.0293 -0.02771,-0.0652 -0.04725,-0.0945 -0.04331,-0.065 -0.05118,-0.0295 -0.09449,-0.0945 -0.01954,-0.0293 -0.02771,-0.0652 -0.04725,-0.0945 -0.144297,-0.21644 0.07679,0.20083 -0.09449,-0.14174 -0.03439,-0.0688 -0.03678,-0.0985 -0.09449,-0.14174 -0.04543,-0.0341 -0.101589,-0.0543 -0.141741,-0.0945 -0.01114,-0.0111 0.0087,-0.0342 0,-0.0473 -0.03522,-0.0528 -0.137563,-0.13756 -0.188989,-0.18899 -0.03026,-0.0303 -0.144773,-0.15951 -0.188988,-0.18899 -0.0293,-0.0195 -0.06632,-0.0261 -0.09449,-0.0472 -0.204357,-0.20436 0.01252,-0.007 -0.188988,-0.14174 -0.04227,-0.0282 -0.05222,-0.0663 -0.09449,-0.0945 -0.0293,-0.0195 -0.06632,-0.0261 -0.09449,-0.0473 -0.07127,-0.0534 -0.117716,-0.13553 -0.188988,-0.18898 -0.02817,-0.0211 -0.06519,-0.0277 -0.09449,-0.0472 -0.06552,-0.0437 -0.122213,-0.10001 -0.188988,-0.14174 -0.330266,-0.20642 -0.04837,0.0231 -0.47247,-0.18899 -0.07968,-0.0398 -0.112595,-0.14315 -0.188988,-0.18899 -0.04271,-0.0256 -0.0972,-0.025 -0.141741,-0.0473 -0.05079,-0.0254 -0.09095,-0.0691 -0.141742,-0.0945 -0.07586,-0.0379 -0.160377,-0.0566 -0.236235,-0.0945 -0.05079,-0.0254 -0.09305,-0.0653 -0.141741,-0.0945 -0.0302,-0.0181 -0.06519,-0.0277 -0.09449,-0.0472 -0.06552,-0.0437 -0.118556,-0.10653 -0.188988,-0.14175 -0.02817,-0.0141 -0.06554,0.0124 -0.09449,0 -0.19557,0.0391 -0.209554,-0.17564 -0.330729,-0.23623 -0.05808,-0.029 -0.127386,-0.0267 -0.188988,-0.0472 -0.03341,-0.0111 -0.0618,-0.0342 -0.09449,-0.0472 -0.04624,-0.0185 -0.0972,-0.025 -0.141741,-0.0473 -0.05079,-0.0254 -0.09305,-0.0653 -0.141742,-0.0945 -0.110802,-0.0665 -0.101017,-0.0404 -0.236235,-0.0945 -0.108,-0.0432 -0.125309,-0.0752 -0.236235,-0.14174 -0.0302,-0.0181 -0.063,-0.0315 -0.09449,-0.0472 -0.0315,-0.0158 -0.06519,-0.0277 -0.09449,-0.0472 -0.01853,-0.0124 -0.02564,-0.0418 -0.04725,-0.0472 -0.193511,-0.0484 -0.09484,0.0659 -0.283482,-0.0473 -0.0382,-0.0229 -0.05465,-0.0746 -0.09449,-0.0945 -0.02817,-0.0141 -0.06394,0.008 -0.09449,0 -0.06833,-0.0171 -0.123594,-0.0683 -0.188988,-0.0945 -0.04624,-0.0185 -0.09904,-0.0216 -0.141741,-0.0472 -0.0382,-0.0229 -0.05223,-0.0804 -0.09449,-0.0945 -0.05976,-0.0199 -0.125992,0 -0.188988,0 -0.01575,0 -0.03611,0.0111 -0.04725,0 -0.04015,-0.0401 -0.0458,-0.11252 -0.09449,-0.14174 -0.04051,-0.0243 -0.09541,0.009 -0.141741,0 -0.0022,-4.5e-4 -0.182457,-0.0919 -0.188988,-0.0945 -0.04624,-0.0185 -0.0972,-0.025 -0.141741,-0.0473 -0.01992,-0.01 -0.02733,-0.0373 -0.04725,-0.0472 -0.08909,-0.0445 -0.194392,-0.05 -0.283482,-0.0945 -0.144082,-0.072 0.08641,-0.0375 -0.141741,-0.0945 -0.125992,-0.0315 -0.09355,0.0598 -0.236235,-0.0472 -0.251256,-0.18844 0.270061,-0.005 -0.188988,-0.18899 -0.02924,-0.0117 -0.06461,0.01 -0.09449,0 -0.02113,-0.007 -0.02612,-0.0402 -0.04725,-0.0473 -0.02988,-0.01 -0.06461,0.01 -0.09449,0 -0.02113,-0.007 -0.0315,-0.0315 -0.04725,-0.0472 -0.0315,-0.0157 -0.06033,-0.0387 -0.09449,-0.0472 -0.03056,-0.008 -0.06461,0.01 -0.09449,0 -0.02113,-0.007 -0.02943,-0.0339 -0.04725,-0.0473 -0.04543,-0.0341 -0.09095,-0.0691 -0.141742,-0.0945 -0.01409,-0.007 -0.03316,0.007 -0.04725,0 -0.01992,-0.01 -0.02612,-0.0402 -0.04725,-0.0473 -0.02988,-0.01 -0.06394,0.008 -0.09449,0 -0.03416,-0.009 -0.06033,-0.0387 -0.09449,-0.0472 -0.03056,-0.008 -0.06461,0.01 -0.09449,0 -0.02113,-0.007 -0.02872,-0.0349 -0.04725,-0.0472 -0.07641,-0.0509 -0.154098,-0.10068 -0.236235,-0.14174 -0.01409,-0.007 -0.0315,0 -0.04725,0 -0.0315,0 -0.06361,0.006 -0.09449,0 -0.04884,-0.01 -0.0972,-0.025 -0.141741,-0.0473 -0.01992,-0.01 -0.02733,-0.0373 -0.04725,-0.0472 -0.01409,-0.007 -0.0315,0 -0.04725,0 -0.0315,-0.0158 -0.06519,-0.0277 -0.09449,-0.0473 -0.01853,-0.0124 -0.02733,-0.0373 -0.04725,-0.0472 -0.01409,-0.007 -0.03197,0.004 -0.04725,0 -0.04832,-0.0121 -0.09449,-0.0315 -0.141741,-0.0473 -0.04725,-0.0157 -0.0972,-0.025 -0.141741,-0.0472 -0.01992,-0.01 -0.02612,-0.0402 -0.04725,-0.0472 -0.02988,-0.01 -0.06525,0.0117 -0.09449,0 -0.05272,-0.0211 -0.08787,-0.0765 -0.141741,-0.0945 -0.04482,-0.0149 -0.09787,0.0175 -0.141741,0 -0.04136,-0.0165 -0.05465,-0.0746 -0.09449,-0.0945 -0.02817,-0.0141 -0.06461,0.01 -0.09449,0 -0.02113,-0.007 -0.02564,-0.0419 -0.04725,-0.0473 -0.04584,-0.0115 -0.09692,0.0149 -0.141741,0 -0.222826,-0.0743 -0.07705,-0.0671 -0.188988,-0.14174 -0.238683,-0.15912 -0.0011,-3.7e-4 -0.141742,-0.0473 -0.03341,-0.0111 -0.063,-0.0315 -0.09449,-0.0472 -0.0315,-0.0157 -0.06519,-0.0277 -0.09449,-0.0473 -0.03706,-0.0247 -0.05465,-0.0746 -0.09449,-0.0945 -0.153668,-0.0768 -0.112385,-0.0119 -0.236235,-0.0945 -0.01853,-0.0123 -0.03729,-0.0273 -0.04725,-0.0472 -0.007,-0.0141 0.01409,-0.0402 0,-0.0472 -0.02817,-0.0141 -0.06394,0.008 -0.09449,0 -0.07628,-0.0191 -0.09371,-0.0465 -0.141741,-0.0945 -0.01575,-0.0158 -0.02612,-0.0402 -0.04725,-0.0472 -0.02988,-0.01 -0.06632,0.0141 -0.09449,0 -0.03984,-0.0199 -0.05465,-0.0746 -0.09449,-0.0945 -0.02817,-0.0141 -0.06525,0.0117 -0.09449,0 -0.05272,-0.0211 -0.09095,-0.0691 -0.141741,-0.0945 -0.01409,-0.007 -0.03231,0.005 -0.04725,0 -0.06682,-0.0223 -0.120659,-0.0774 -0.188988,-0.0945 -0.03056,-0.008 -0.06632,0.0141 -0.09449,0 -0.03984,-0.0199 -0.0563,-0.0716 -0.09449,-0.0945 -0.285191,-0.17112 -0.02011,0.0248 -0.236235,-0.0472 -0.02113,-0.007 -0.02872,-0.0349 -0.04725,-0.0472 -0.13956,-0.093 -0.04943,-10e-4 -0.188988,-0.0945 -0.01853,-0.0123 -0.02733,-0.0373 -0.04725,-0.0472 -0.01409,-0.007 -0.03316,0.007 -0.04725,0 -0.01992,-0.01 -0.0315,-0.0315 -0.04725,-0.0472 0,-0.0157 0.01409,-0.0402 0,-0.0472 -0.02817,-0.0141 -0.063,0 -0.09449,0 -0.0315,-0.0315 -0.05743,-0.0698 -0.09449,-0.0945 -0.02621,-0.0175 -0.07222,0.0223 -0.09449,0 -0.063,-0.063 0.100226,-0.0453 -0.04725,-0.0945 -0.05976,-0.0199 -0.132642,0.0282 -0.188987,0 -0.01409,-0.007 0.01114,-0.0361 0,-0.0472 -0.01114,-0.0111 -0.03231,0.005 -0.04725,0 -0.03341,-0.0111 -0.06108,-0.0361 -0.09449,-0.0472 -0.01494,-0.005 -0.03611,0.0111 -0.04725,0 -0.01114,-0.0111 0.01114,-0.0361 0,-0.0473 -0.01114,-0.0111 -0.03316,0.007 -0.04725,0 -0.01992,-0.01 -0.02733,-0.0373 -0.04725,-0.0473 -0.04725,-0.0157 -0.09449,-0.0315 -0.141741,-0.0472 -0.01575,-0.0157 -0.02733,-0.0373 -0.04725,-0.0472 -0.02817,-0.0141 -0.07222,0.0223 -0.09449,0 -0.0249,-0.0249 -0.02235,-0.0696 -0.04725,-0.0945 -0.02227,-0.0223 -0.07222,0.0223 -0.09449,0 -0.01114,-0.0111 0.01114,-0.0361 0,-0.0473 -0.02227,-0.0223 -0.07222,0.0223 -0.09449,0 -0.0249,-0.0249 -0.02235,-0.0696 -0.04725,-0.0945 -0.05755,-0.0575 -0.10556,-0.0221 -0.141741,-0.0945 -0.007,-0.0141 0.01114,-0.0361 0,-0.0473 -0.02227,-0.0223 -0.07222,0.0223 -0.09449,0 -0.01114,-0.0111 0.01114,-0.0361 0,-0.0472 -0.02227,-0.0223 -0.06632,0.0141 -0.09449,0 -0.196631,-0.0983 0.05051,0.003 -0.04725,-0.0945 -0.02227,-0.0223 -0.06632,0.0141 -0.09449,0 -0.01992,-0.01 -0.02733,-0.0373 -0.04725,-0.0472 -0.02817,-0.0141 -0.07222,0.0223 -0.09449,0 -0.01114,-0.0111 0.01114,-0.0361 0,-0.0472 -0.02227,-0.0223 -0.08041,0.0282 -0.09449,0 -0.01409,-0.0282 0.01409,-0.0663 0,-0.0945 -0.007,-0.0141 -0.03611,0.0111 -0.04725,0 -0.01114,-0.0111 0,-0.0315 0,-0.0472 -0.0315,0 -0.06632,0.0141 -0.09449,0 -0.02817,-0.0141 0.02227,-0.0722 0,-0.0945 -0.01114,-0.0111 -0.03611,0.0111 -0.04725,0 -0.09776,-0.0978 0.149383,0.004 -0.04725,-0.0945 -0.01409,-0.007 -0.03316,0.007 -0.04725,0 -0.0567,-0.0283 -0.08505,-0.11339 -0.141741,-0.14174 -0.01409,-0.007 -0.0402,0.0141 -0.04725,0 -0.02657,-0.0531 0.04714,-0.28305 0.04725,-0.28348 z"
       id="path5100"
       inkscape:connector-curvature="0"
       inkscape:export-xdpi="40.639999"
       inkscape:export-ydpi="40.639999" />
  </g>
</svg>
